<svg width="70" height="70" viewBox="0 0 70 70" fill="none" xmlns="http://www.w3.org/2000/svg">
<path d="M0 35C0 54.3301 15.67 70 35 70C54.3301 70 70 54.3301 70 35C70 15.67 54.3301 0 35 0C15.67 0 0 15.67 0 35Z" fill="#25D366"/>
<path fill-rule="evenodd" clip-rule="evenodd" d="M47.25 22.5313C43.9688 19.25 39.5938 17.5 35 17.5C25.375 17.5 17.5 25.375 17.5 35C17.5 38.0625 18.375 41.125 19.9063 43.75L17.5 52.5L26.6875 50.0938C29.3125 51.4062 32.1562 52.2812 35 52.2812C44.625 52.2812 52.5 44.4062 52.5 34.7812C52.5 30.1875 50.5312 25.8125 47.25 22.5313ZM35 49.4375C32.375 49.4375 29.75 48.7813 27.5625 47.4688L27.125 47.25L21.6562 48.7812L23.1875 43.5312L22.75 42.875C21.2187 40.4688 20.5625 37.8438 20.5625 35.2188C20.5625 27.3438 27.125 20.7812 35 20.7812C38.9375 20.7812 42.4375 22.3125 45.2813 24.9375C48.125 27.7812 49.4375 31.2813 49.4375 35.2188C49.4375 42.875 43.0938 49.4375 35 49.4375ZM42.875 38.5C42.4375 38.2812 40.25 37.1875 39.8125 37.1875C39.375 36.9688 39.1562 36.9688 38.9375 37.4062C38.7187 37.8438 37.8438 38.7188 37.625 39.1562C37.4063 39.375 37.1875 39.375 36.75 39.375C36.3125 39.1562 35 38.7188 33.25 37.1875C31.9375 36.0938 31.0625 34.5625 30.8438 34.125C30.625 33.6875 30.8438 33.4688 31.0625 33.25C31.2812 33.0312 31.5 32.8125 31.7188 32.5937C31.9375 32.375 31.9375 32.1563 32.1562 31.9375C32.375 31.7188 32.1562 31.5 32.1562 31.2812C32.1562 31.0625 31.2813 28.875 30.8438 28C30.625 27.3438 30.1875 27.3438 29.9688 27.3438C29.75 27.3438 29.5312 27.3438 29.0938 27.3438C28.875 27.3438 28.4375 27.3438 28 27.7812C27.5625 28.2188 26.4688 29.3125 26.4688 31.5C26.4688 33.6875 28 35.6562 28.2187 36.0938C28.4375 36.3125 31.2812 40.9062 35.6562 42.6562C39.375 44.1875 40.0313 43.75 40.9063 43.75C41.7813 43.75 43.5312 42.6562 43.75 41.7812C44.1875 40.6875 44.1875 39.8125 43.9688 39.8125C43.75 38.7188 43.3125 38.7188 42.875 38.5Z" fill="white"/>
</svg>
